<?xml version="1.0" encoding="UTF-8"?>
<svg id="Layer_2" data-name="Layer 2" xmlns="http://www.w3.org/2000/svg" viewBox="0 0 479.5 493.46">
  <g id="Layer_1-2" data-name="Layer 1">
    <g>
      <g>
        <g>
          <rect x="70.47" y="0" width="238.87" height="217.83" rx="17.63" ry="17.63" fill="#c5d0e5" strokeWidth="0"/>
          <rect x="103.05" y="33.97" width="173.72" height="149.89" rx="39.36" ry="39.36" fill="#4e68aa" strokeWidth="0"/>
          <g>
            <rect x="137.31" y="64.2" width="26.24" height="59.26" rx="13.12" ry="13.12" fill="#1d2c6e" strokeWidth="0"/>
            <rect x="216.26" y="64.2" width="26.24" height="59.26" rx="13.12" ry="13.12" fill="#1d2c6e" strokeWidth="0"/>
            <rect x="176.79" y="124.99" width="26.24" height="47.17" rx="7.9" ry="7.9" transform="translate(338.48 -41.34) rotate(90)" fill="#1d2c6e" strokeWidth="0"/>
          </g>
        </g>
        <g>
          <path d="M263.56,165.53h121.33c14.1,0,25.55,11.45,25.55,25.55v98.56c0,4.81-3.91,8.72-8.72,8.72h-155.01c-4.81,0-8.72-3.91-8.72-8.72v-98.56c0-14.1,11.45-25.55,25.55-25.55Z" transform="translate(648.45 463.89) rotate(180)" fill="#4e68aa" strokeWidth="0"/>
          <path d="M303.8,298.36h40.84v16.24c0,2.6-2.11,4.72-4.72,4.72h-31.41c-2.6,0-4.72-2.11-4.72-4.72v-16.24h0Z" fill="#1d2c6e" strokeWidth="0"/>
          <path d="M392.76,189.52h-22.63v83.29c0,14.11-11.44,25.55-25.55,25.55h40.31c14.11,0,25.55-11.44,25.55-25.55v-98.56c0-.41-.07-.81-.12-1.21-.63,9.19-8.21,16.48-17.56,16.48Z" fill="#40589a" strokeWidth="0"/>
          <path d="M301.56,357.73h-27.33c-7.13,0-13.84-2.78-18.87-7.82l-31.09-31.08c-6.73-6.73-15.86-10.51-25.39-10.51h-37.03c-5,0-9.95,1.05-14.5,3.06-1.85.82-4.02.02-5.01-1.74h0c-1.18-2.09-.28-4.75,1.92-5.71,5.53-2.41,11.54-3.67,17.6-3.67h37.03c11.66,0,22.85,4.63,31.09,12.88l31.08,31.08c3.49,3.49,8.23,5.46,13.17,5.46h27.33c10.29,0,18.63-8.34,18.63-18.63v-11.73h8.06v11.73c0,14.74-11.95,26.69-26.69,26.69Z" fill="#40589a" strokeWidth="0"/>
          <path d="M261.95,137.32h124.56c13.21,0,23.94,10.73,23.94,23.94v10.58c0,9.76-7.92,17.68-17.68,17.68h-137.07c-9.76,0-17.68-7.92-17.68-17.68v-10.58c0-13.21,10.73-23.94,23.94-23.94Z" fill="#95a8d3" strokeWidth="0"/>
          <g>
            <path d="M275.85,81.14h0c5.43,0,9.84,4.41,9.84,9.84v68.96c0,1.93-1.56,3.49-3.49,3.49h-12.69c-1.93,0-3.49-1.56-3.49-3.49v-68.96c0-5.43,4.41-9.84,9.84-9.84Z" fill="#40589a" strokeWidth="0"/>
            <path d="M372.6,81.14h0c5.43,0,9.84,4.41,9.84,9.84v68.96c0,1.93-1.56,3.49-3.49,3.49h-12.69c-1.93,0-3.49-1.56-3.49-3.49v-68.96c0-5.43,4.41-9.84,9.84-9.84Z" fill="#40589a" strokeWidth="0"/>
          </g>
          <path d="M324.22,113.39h0c5.43,0,9.84,4.41,9.84,9.84v36.71c0,1.93-1.56,3.49-3.49,3.49h-12.69c-1.93,0-3.49-1.56-3.49-3.49v-36.71c0-5.43,4.41-9.84,9.84-9.84Z" fill="#1d2c6e" strokeWidth="0"/>
        </g>
      </g>
      <g>
        <path d="M29.31,421.32c-1.16.33-2.73.5-4.72.5-2.89,0-5.79-.46-8.7-1.38s-5.48-2.09-7.7-3.51l-4.61,10.44c2.32,1.56,5.36,2.85,9.12,3.87,3.76,1.02,7.7,1.53,11.82,1.53,4.92,0,9.02-.73,12.28-2.2,3.27-1.47,5.72-3.42,7.35-5.86,1.63-2.44,2.45-5.1,2.45-7.99,0-2.6-.52-4.77-1.56-6.5-1.04-1.73-2.4-3.12-4.08-4.19-1.68-1.07-3.51-1.92-5.5-2.56-1.99-.64-3.99-1.17-6-1.6-2.01-.43-3.85-.84-5.5-1.24-1.66-.4-3.01-.92-4.05-1.56-1.04-.64-1.56-1.53-1.56-2.66,0-.76.26-1.47.78-2.13.52-.66,1.37-1.21,2.56-1.63,1.18-.43,2.74-.64,4.69-.64,2.18,0,4.43.31,6.74.92,2.32.62,4.66,1.59,7.03,2.91l4.26-10.37c-2.41-1.47-5.2-2.57-8.34-3.3-3.15-.73-6.35-1.1-9.62-1.1-4.88,0-8.95.73-12.21,2.2-3.27,1.47-5.7,3.41-7.31,5.82-1.61,2.41-2.41,5.09-2.41,8.02,0,2.65.51,4.85,1.53,6.6,1.02,1.75,2.35,3.17,4.01,4.26,1.66,1.09,3.5,1.96,5.54,2.63,2.03.66,4.03,1.2,6,1.6,1.96.4,3.79.83,5.47,1.28,1.68.45,3.04.99,4.08,1.63,1.04.64,1.56,1.5,1.56,2.59,0,.85-.27,1.59-.82,2.2-.54.62-1.4,1.09-2.56,1.42Z" fill="#1d2c6e" strokeWidth="0"/>
        <path d="M99.91,388.37c-2.46-2.32-5.37-4.12-8.73-5.4-3.36-1.28-7.03-1.92-11-1.92s-7.65.64-11.01,1.92c-3.36,1.28-6.27,3.09-8.73,5.43-2.46,2.34-4.39,5.08-5.79,8.2-1.4,3.12-2.09,6.53-2.09,10.22s.7,7.18,2.09,10.33c1.4,3.15,3.33,5.89,5.79,8.24,2.46,2.34,5.38,4.15,8.77,5.43,3.38,1.28,7.04,1.92,10.97,1.92s7.64-.64,11-1.92c3.36-1.28,6.28-3.08,8.77-5.4,2.48-2.32,4.41-5.05,5.79-8.2,1.37-3.15,2.06-6.61,2.06-10.4s-.7-7.17-2.09-10.29c-1.4-3.12-3.33-5.85-5.79-8.17ZM92.57,412.76c-.69,1.73-1.63,3.22-2.84,4.47-1.21,1.25-2.63,2.21-4.26,2.88-1.63.66-3.4.99-5.29.99s-3.66-.33-5.29-.99c-1.63-.66-3.07-1.62-4.3-2.88-1.23-1.25-2.18-2.74-2.84-4.47-.66-1.73-.99-3.68-.99-5.86s.33-4.13.99-5.86c.66-1.73,1.61-3.22,2.84-4.47,1.23-1.25,2.66-2.21,4.3-2.88,1.63-.66,3.4-.99,5.29-.99s3.66.33,5.29.99c1.63.66,3.05,1.62,4.26,2.88,1.21,1.25,2.15,2.75,2.84,4.47.69,1.73,1.03,3.68,1.03,5.86s-.34,4.13-1.03,5.86Z" fill="#1d2c6e" strokeWidth="0"/>
        <polygon points="130.3 406.12 143.01 426.85 149.26 426.85 162.06 405.38 162.18 431.75 175.1 431.75 175.03 382.05 163.46 382.05 146.39 410.77 128.95 382.05 117.38 382.05 117.38 431.75 130.3 431.75 130.3 406.12" fill="#1d2c6e" strokeWidth="0"/>
        <polygon points="227.08 420.82 201.09 420.82 201.09 411.73 223.17 411.73 223.17 401.29 201.09 401.29 201.09 392.99 226.15 392.99 226.15 382.05 187.24 382.05 187.24 431.75 227.08 431.75 227.08 420.82" fill="#1d2c6e" strokeWidth="0"/>
        <polygon points="247.59 431.75 261.65 431.75 261.65 393.2 276.85 393.2 276.85 382.05 232.33 382.05 232.33 393.2 247.59 393.2 247.59 431.75" fill="#1d2c6e" strokeWidth="0"/>
        <polygon points="298.36 412.37 317.46 412.37 317.46 431.75 331.52 431.75 331.52 382.05 317.46 382.05 317.46 400.73 298.36 400.73 298.36 382.05 284.3 382.05 284.3 431.75 298.36 431.75 298.36 412.37" fill="#1d2c6e" strokeWidth="0"/>
        <rect x="343.66" y="382.05" width="14.06" height="49.7" fill="#1d2c6e" strokeWidth="0"/>
        <polygon points="405.5 431.75 417.07 431.75 417.07 382.05 403.3 382.05 403.3 408.52 381.43 382.05 369.85 382.05 369.85 431.75 383.56 431.75 383.56 405.27 405.5 431.75" fill="#1d2c6e" strokeWidth="0"/>
        <path d="M453.99,432.75c3.6,0,7.25-.54,10.97-1.63,3.72-1.09,7.02-2.65,9.91-4.69v-20.59h-12.5v13.66c-.47.22-.95.41-1.42.57-1.99.69-4.02,1.03-6.11,1.03s-3.99-.34-5.72-1.03c-1.73-.69-3.21-1.66-4.44-2.91-1.23-1.25-2.19-2.76-2.88-4.51-.69-1.75-1.03-3.67-1.03-5.75s.34-4.07,1.03-5.82c.69-1.75,1.64-3.25,2.88-4.51,1.23-1.25,2.72-2.21,4.47-2.88,1.75-.66,3.69-.99,5.82-.99,2.41,0,4.6.45,6.57,1.35,1.96.9,3.8,2.3,5.5,4.19l8.95-8.09c-2.41-2.93-5.47-5.18-9.16-6.74-3.69-1.56-7.86-2.34-12.5-2.34-4.07,0-7.79.63-11.15,1.88-3.36,1.25-6.28,3.03-8.77,5.33-2.49,2.3-4.41,5.03-5.79,8.2-1.37,3.17-2.06,6.65-2.06,10.44s.69,7.27,2.06,10.44c1.37,3.17,3.29,5.91,5.75,8.2,2.46,2.3,5.35,4.07,8.66,5.33,3.31,1.25,6.96,1.88,10.93,1.88Z" fill="#1d2c6e" strokeWidth="0"/>
        <polygon points="48.22 477.92 39.87 451.29 29.12 451.29 20.37 477.68 12.05 451.29 0 451.29 13.41 492.63 25.99 492.63 34.17 467.39 42.11 492.63 54.64 492.63 68.04 451.29 56.88 451.29 48.22 477.92" fill="#ff932c" strokeWidth="0"/>
        <polygon points="85.59 475.98 103.96 475.98 103.96 467.29 85.59 467.29 85.59 460.38 106.44 460.38 106.44 451.29 74.07 451.29 74.07 492.63 107.21 492.63 107.21 483.54 85.59 483.54 85.59 475.98" fill="#ff932c" strokeWidth="0"/>
        <polygon points="143.35 473.31 125.16 451.29 115.53 451.29 115.53 492.63 126.93 492.63 126.93 470.6 145.19 492.63 154.81 492.63 154.81 451.29 143.35 451.29 143.35 473.31" fill="#ff932c" strokeWidth="0"/>
        <polygon points="160.96 460.56 173.66 460.56 173.66 492.63 185.35 492.63 185.35 460.56 197.99 460.56 197.99 451.29 160.96 451.29 160.96 460.56" fill="#ff932c" strokeWidth="0"/>
        <polygon points="268.12 477.93 259.77 451.29 249.02 451.29 240.27 477.68 231.95 451.29 219.9 451.29 233.31 492.63 245.89 492.63 254.08 467.39 262.02 492.63 274.54 492.63 287.95 451.29 276.78 451.29 268.12 477.93" fill="#ff932c" strokeWidth="0"/>
        <path d="M328.97,474.68c1.48-2.25,2.21-4.96,2.21-8.15s-.74-5.82-2.21-8.12c-1.48-2.3-3.59-4.07-6.35-5.29-2.76-1.22-6.02-1.83-9.8-1.83h-18.84v41.35h11.7v-10.99h6.32l7.5,10.99h12.52l-8.93-13.01c2.53-1.19,4.49-2.83,5.89-4.95ZM317.6,462.13c1.22,1.08,1.83,2.55,1.83,4.4s-.61,3.43-1.83,4.49c-1.22,1.06-3.05,1.59-5.49,1.59h-6.44v-12.11h6.44c2.44,0,4.27.54,5.49,1.62Z" fill="#ff932c" strokeWidth="0"/>
        <path d="M376.66,456.54c-2.05-1.93-4.47-3.43-7.26-4.49-2.8-1.06-5.85-1.59-9.16-1.59s-6.36.53-9.16,1.59c-2.8,1.06-5.22,2.57-7.27,4.52-2.05,1.95-3.65,4.22-4.81,6.82-1.16,2.6-1.74,5.43-1.74,8.51s.58,5.98,1.74,8.59c1.16,2.62,2.77,4.9,4.81,6.85,2.05,1.95,4.48,3.46,7.29,4.52,2.81,1.06,5.86,1.59,9.13,1.59s6.36-.53,9.16-1.59c2.79-1.06,5.23-2.56,7.29-4.49,2.07-1.93,3.67-4.2,4.81-6.82,1.14-2.62,1.71-5.5,1.71-8.65s-.58-5.97-1.74-8.56c-1.16-2.6-2.77-4.86-4.81-6.79ZM370.55,476.83c-.57,1.44-1.36,2.68-2.36,3.72-1,1.04-2.19,1.84-3.54,2.39s-2.83.83-4.4.83-3.04-.27-4.4-.83-2.55-1.35-3.57-2.39c-1.02-1.04-1.81-2.28-2.36-3.72-.55-1.44-.83-3.06-.83-4.87s.28-3.44.83-4.87c.55-1.44,1.34-2.68,2.36-3.72,1.02-1.04,2.22-1.84,3.57-2.39s2.83-.83,4.4-.83,3.04.28,4.4.83,2.54,1.35,3.54,2.39c1,1.04,1.79,2.28,2.36,3.72.57,1.44.86,3.06.86,4.87s-.29,3.44-.86,4.87Z" fill="#ff932c" strokeWidth="0"/>
        <polygon points="419.01 473.31 400.82 451.29 391.19 451.29 391.19 492.63 402.59 492.63 402.59 470.6 420.85 492.63 430.47 492.63 430.47 451.29 419.01 451.29 419.01 473.31" fill="#ff932c" strokeWidth="0"/>
        <path d="M468.16,482.44c-.39.18-.79.34-1.18.48-1.65.57-3.35.86-5.08.86s-3.32-.29-4.75-.86c-1.44-.57-2.67-1.38-3.69-2.42-1.02-1.04-1.82-2.29-2.39-3.75-.57-1.46-.86-3.05-.86-4.78s.29-3.39.86-4.84c.57-1.46,1.37-2.71,2.39-3.75,1.02-1.04,2.26-1.84,3.72-2.39s3.07-.83,4.84-.83c2.01,0,3.83.37,5.46,1.12,1.63.75,3.16,1.91,4.58,3.49l7.44-6.73c-2.01-2.44-4.55-4.31-7.62-5.61-3.07-1.3-6.54-1.95-10.4-1.95-3.39,0-6.48.52-9.27,1.57-2.8,1.04-5.23,2.52-7.29,4.43-2.07,1.91-3.67,4.18-4.81,6.82-1.14,2.64-1.71,5.53-1.71,8.68s.57,6.04,1.71,8.68c1.14,2.64,2.74,4.91,4.79,6.82,2.05,1.91,4.45,3.39,7.21,4.43,2.76,1.04,5.79,1.57,9.1,1.57,2.99,0,6.03-.45,9.13-1.36,3.09-.91,5.84-2.21,8.24-3.9v-17.13h-10.4v11.36Z" fill="#ff932c" strokeWidth="0"/>
      </g>
    </g>
  </g>
</svg>